<svg width="20" height="20" viewBox="0 0 20 20" fill="none" xmlns="http://www.w3.org/2000/svg">
<circle cx="10" cy="10" r="9.5" stroke="white"/>
<path d="M9.64941 6.70312C9.64941 6.48177 9.71289 6.30924 9.83984 6.18555C9.9668 6.06185 10.1198 6 10.2988 6C10.7318 6 10.9482 6.23438 10.9482 6.70312C10.9482 6.91797 10.8815 7.08887 10.748 7.21582C10.6146 7.33952 10.4648 7.40137 10.2988 7.40137C10.1003 7.40137 9.94238 7.33952 9.8252 7.21582C9.70801 7.09212 9.64941 6.92122 9.64941 6.70312ZM11.5977 13.6514H9V13.0996L9.84961 12.8506V9.14941L9 8.94922V8.40234L10.8506 8.35352V12.8506L11.5977 13.0996V13.6514Z" fill="white"/>
</svg>
